<svg width="18" height="20" viewBox="0 0 18 20" fill="none" xmlns="http://www.w3.org/2000/svg">
<path d="M2.25 1L2.25 19C2.25 19.41 1.91 19.75 1.5 19.75C1.09 19.75 0.75 19.41 0.75 19L0.75 1C0.75 0.590001 1.09 0.250001 1.5 0.250001C1.91 0.250001 2.25 0.590001 2.25 1ZM7.25 9.53L7.25 19C7.25 19.41 6.91 19.75 6.5 19.75C6.09 19.75 5.75 19.41 5.75 19L5.75 9.53C5.75 9.33109 5.82902 9.14032 5.96967 8.99967C6.11032 8.85902 6.30109 8.78 6.5 8.78C6.69891 8.78 6.88968 8.85902 7.03033 8.99967C7.17098 9.14032 7.25 9.33109 7.25 9.53ZM12.25 1L12.25 19C12.25 19.41 11.91 19.75 11.5 19.75C11.09 19.75 10.75 19.41 10.75 19L10.75 1C10.75 0.590001 11.09 0.250001 11.5 0.250001C11.91 0.250001 12.25 0.590001 12.25 1ZM17.25 9.53V19C17.25 19.41 16.91 19.75 16.5 19.75C16.09 19.75 15.75 19.41 15.75 19V9.53C15.75 9.33109 15.829 9.14032 15.9697 8.99967C16.1103 8.85902 16.3011 8.78 16.5 8.78C16.6989 8.78 16.8897 8.85902 17.0303 8.99967C17.171 9.14032 17.25 9.33109 17.25 9.53Z" fill="black"/>
</svg>
